<?xml version="1.0" ?><svg data-name="Layer 1" id="Layer_1" viewBox="0 0 32 32" xmlns="http://www.w3.org/2000/svg" fill="#ffd479"><path d="M16,10a6,6,0,1,0,6,6A6,6,0,0,0,16,10Zm0,11a5,5,0,1,1,5-5A5,5,0,0,1,16,21Z"/><path d="M18.5,15.5h-2v-2a.5.5,0,0,0-1,0v2h-2a.5.5,0,0,0,0,1h2v2a.5.5,0,0,0,1,0v-2h2a.5.5,0,0,0,0-1Z"/><path d="M23.5,2h-12a.41.41,0,0,0-.19,0,.36.36,0,0,0-.16.11l-5,5A.36.36,0,0,0,6,7.31.41.41,0,0,0,6,7.5v20A2.5,2.5,0,0,0,8.5,30h15A2.5,2.5,0,0,0,26,27.5V4.5A2.5,2.5,0,0,0,23.5,2ZM11,3.71V5.5A1.5,1.5,0,0,1,9.5,7H7.71ZM25,27.5A1.5,1.5,0,0,1,23.5,29H8.5A1.5,1.5,0,0,1,7,27.5V8H9.5A2.5,2.5,0,0,0,12,5.5V3H23.5A1.5,1.5,0,0,1,25,4.5Z"/></svg>